<svg version="1.0" xmlns="http://www.w3.org/2000/svg" width="300.000000pt" height="278.000000pt" viewBox="0 0 300.000000 278.000000" preserveAspectRatio="xMidYMid meet">
<metadata>
Created by potrace 1.10, written by Peter Selinger 2001-2011
</metadata>
<g transform="translate(0.000000,278.000000) scale(0.100000,-0.100000)" fill="#064e3b" stroke="none">
<path d="M1233 2738 c-29 -6 -40 -13 -37 -22 4 -10 -11 -19 -44 -30 -28 -10 -62 -28 -77 -41 -14 -14 -37 -28 -51 -31 -14 -4 -48 -21 -74 -38 -27 -17 -79 -49 -116 -71 -37 -22 -90 -57 -118 -78 l-51 -38 54 51 c29 28 51 53 49 56 -9 8 -125 -74 -193 -137 -147 -137 -166 -165 -219 -329 -16 -47 -32 -89 -38 -95 -12 -13 -1 35 23 98 11 26 19 55 19 65 -1 60 -153 -239 -182 -358 -47 -197 -52 -385 -14 -538 48 -189 116 -340 220 -492 29 -41 65 -102 80 -135 38 -79 169 -207 274 -268 80 -46 188 -91 305 -127 213 -65 655 -78 749 -23 51 30 58 50 26 78 -32 28 -48 30 -364 45 -236 10 -295 20 -448 72 -267 90 -512 303 -641 558 -78 154 -121 377 -111 575 6 128 23 212 75 364 42 122 66 168 142 271 120 162 270 285 473 387 187 94 337 127 571 128 131 0 179 -4 264 -23 57 -13 111 -28 120 -33 9 -4 58 -25 110 -44 162 -61 309 -157 464 -304 31 -30 60 -51 64 -48 12 13 -30 86 -76 129 -44 43 -199 157 -231 171 -8 4 -46 27 -85 52 -38 24 -73 44 -77 45 -4 0 -36 13 -70 29 -145 66 -405 98 -578 72 -41 -7 -102 -14 -135 -17 l-60 -5 40 16 c22 9 95 22 163 29 233 24 464 -18 697 -125 28 -13 53 -22 58 -21 4 1 7 -2 7 -8 0 -10 70 -43 77 -37 19 19 -282 158 -412 191 -114 29 -235 39 -380 32 -77 -3 -150 -9 -163 -12 -18 -5 -21 -3 -16 10 7 18 0 19 -63 4z m24 -25 c-4 -3 -10 -3 -14 0 -3 4 0 7 7 7 7 0 10 -3 7 -7z m-607 -346 c0 -2 -12 -14 -27 -28 l-28 -24 24 28 c23 25 31 32 31 24z m-410 -567 c0 -11 -4 -20 -10 -20 -5 0 -10 9 -10 20 0 11 5 20 10 20 6 0 10 -9 10 -20z m-41 -152 c-1 -59 -3 -67 -9 -40 -7 31 -3 112 6 112 2 0 4 -33 3 -72z" class="" fill="#ffffff" stroke="#000000"/>
<path d="M2310 2500 c0 -5 5 -10 10 -10 6 0 10 5 10 10 0 6 -4 10 -10 10 -5 0 -10 -4 -10 -10z" class="" fill="#ffffff"/>
<path d="M2320 2462 c0 -14 41 -46 108 -87 109 -67 84 -20 -33 61 -49 33 -75 42 -75 26z" class="" fill="#ffffff"/>
<path d="M1520 2373 c-13 -3 -46 -13 -72 -24 -42 -16 -54 -17 -93 -7 -83 22 -187 -22 -244 -105 -21 -31 -40 -47 -69 -55 -89 -27 -145 -112 -146 -222 -1 -108 51 -181 160 -225 l59 -23 24 -96 c26 -107 23 -105 111 -85 25 6 146 14 270 17 l225 7 -60 15 c-43 11 -116 15 -262 15 l-202 0 -15 59 c-8 33 -12 64 -9 69 10 17 89 46 164 62 41 9 135 19 209 22 176 8 136 25 -65 27 -113 1 -162 -4 -252 -23 -127 -27 -166 -24 -214 16 -64 54 -85 143 -50 219 19 41 67 74 110 74 13 0 26 12 37 36 25 52 81 102 127 115 31 8 50 7 85 -5 l46 -15 58 36 c53 33 62 35 122 31 54 -3 72 -9 102 -34 56 -45 73 -73 86 -142 l12 -62 61 0 c79 0 126 -28 139 -83 18 -71 -23 -146 -118 -212 -26 -19 -30 -28 -33 -85 l-4 -65 23 45 c16 32 37 52 73 73 143 82 186 181 129 296 -30 60 -79 97 -141 107 -39 6 -42 9 -54 52 -30 109 -203 201 -329 175z" class="" fill="#ffffff"/>
<path d="M2550 2239 c0 -13 130 -169 141 -169 22 0 -1 40 -63 112 -49 56 -78 77 -78 57z" class="" fill="#ffffff"/>
<path d="M2590 2116 c0 -8 5 -18 10 -21 6 -4 20 -24 31 -47 11 -22 23 -37 26 -34 8 7 -17 66 -28 66 -5 0 -6 6 -3 14 3 8 -3 19 -15 26 -17 9 -21 8 -21 -4z" class="" fill="#ffffff"/>
<path d="M1571 2012 c-19 -42 -36 -83 -38 -89 -3 -8 3 -13 15 -13 16 0 24 11 36 48 45 142 38 173 -13 54z" class="" fill="#ffffff"/>
<path d="M1355 2053 c21 -87 38 -135 51 -140 28 -10 27 7 -6 87 -33 77 -59 109 -45 53z" class="" fill="#ffffff"/>
<path d="M2690 2038 c1 -20 105 -179 113 -172 14 14 6 34 -44 108 -48 72 -69 92 -69 64z" class="" fill="#ffffff"/>
<path d="M1210 1990 c1 -22 69 -112 82 -108 24 8 17 25 -32 73 -27 27 -50 43 -50 35z" class="" fill="#ffffff"/>
<path d="M1703 1950 c-46 -50 -54 -71 -25 -63 16 4 82 89 82 106 0 15 -17 3 -57 -43z" class="" fill="#ffffff"/>
<path d="M1147 1321 c-33 -109 -34 -149 -2 -226 16 -40 25 -80 25 -118 0 -64 10 -89 49 -127 14 -14 47 -50 72 -80 47 -57 148 -120 189 -120 12 0 56 18 98 40 63 32 86 51 124 102 26 35 57 74 68 88 14 18 23 50 30 105 5 44 16 97 25 119 9 21 17 59 17 85 1 47 -37 198 -55 216 -9 10 -8 -8 9 -128 8 -54 -14 -100 -57 -123 -26 -13 -69 -16 -253 -15 -122 0 -233 4 -247 10 -15 5 -36 22 -49 38 -20 25 -21 36 -16 93 3 36 9 80 12 98 13 66 -13 29 -39 -57z" class="" fill="#ffffff" stroke="#000000"/>
<path d="M1395 1320 c-11 -4 -45 -24 -75 -45 -48 -32 -60 -36 -97 -31 l-42 5 11 -30 c5 -16 23 -36 39 -44 59 -31 174 -12 225 36 l21 20 51 -32 c91 -56 188 -57 231 -2 23 28 30 76 9 55 -23 -23 -72 -13 -133 28 -63 42 -88 47 -130 28 -20 -9 -31 -8 -53 2 -37 19 -35 19 -57 10z" class="" fill="#ffffff"/>
<path d="M144 1085 c9 -46 95 -229 141 -299 38 -59 111 -143 118 -136 2 3 -25 48 -60 100 -65 96 -131 224 -162 314 -22 62 -47 77 -37 21z" class="" fill="#ffffff"/>
<path d="M2792 879 c-12 -5 -22 -13 -22 -18 0 -5 -101 -71 -225 -147 -169 -105 -225 -144 -225 -159 0 -15 -43 -46 -163 -120 -89 -55 -164 -101 -168 -103 -4 -2 -47 60 -98 138 -50 77 -94 140 -98 140 -5 0 -20 -10 -34 -23 l-27 -22 182 -278 c101 -152 185 -280 189 -283 9 -9 68 29 63 41 -2 5 -40 66 -84 134 l-81 125 166 103 c101 62 173 101 183 98 10 -3 101 48 235 131 120 74 229 140 242 145 31 12 49 50 34 76 -13 25 -39 33 -69 22z m43 -48 c0 -31 -17 -37 -33 -11 -15 24 -7 42 16 38 10 -2 17 -13 17 -27z" class="" fill="#ffffff"/>
<path d="M1302 361 c-45 -3 -82 -10 -82 -16 0 -13 149 -19 191 -7 18 4 34 13 37 20 4 13 2 13 -146 3z" class="highlight" fill="#ffffff"/>
<path d="M1496 331 c-8 -12 18 -21 57 -21 44 0 78 10 71 21 -7 12 -121 12 -128 0z" class="" fill="#ffffff"/>
<path d="M1645 330 c-8 -12 20 -24 35 -15 5 3 10 10 10 16 0 12 -37 12 -45 -1z" class="" fill="#ffffff"/>
</g>
</svg>